<?xml version="1.0" encoding="UTF-8" standalone="no"?>
<!DOCTYPE svg PUBLIC "-//W3C//DTD SVG 1.1//EN"
 "http://www.w3.org/Graphics/SVG/1.1/DTD/svg11.dtd">
<!-- Generated by graphviz version 5.0.0 (20220707.1540)
 -->
<!-- Title: StorageDiagram Pages: 1 -->
<svg width="1215pt" height="483pt"
 viewBox="0.00 0.00 1215.39 482.60" xmlns="http://www.w3.org/2000/svg" xmlns:xlink="http://www.w3.org/1999/xlink">
<g id="graph0" class="graph" transform="scale(1 1) rotate(0) translate(4 478.6)">
<title>StorageDiagram</title>
<polygon fill="white" stroke="transparent" points="-4,4 -4,-478.6 1211.39,-478.6 1211.39,4 -4,4"/>
<!-- 1 -->
<g id="node1" class="node">
<title>1</title>
<polygon fill="#f2f2f2" stroke="black" points="0,-0.5 0,-474.1 1207.39,-474.1 1207.39,-0.5 0,-0.5"/>
<text text-anchor="middle" x="603.69" y="-457.5" font-family="Courier New" font-size="14.00">GraphToken &lt;&lt;Contract&gt;&gt;</text>
<text text-anchor="middle" x="603.69" y="-440.7" font-family="Courier New" font-size="14.00">0xc944E90C64B2c07662A292be6244BDf05Cda44a7</text>
<polyline fill="none" stroke="black" points="0,-432.5 1207.39,-432.5 "/>
<text text-anchor="middle" x="24.8" y="-415.9" font-family="Courier New" font-size="14.00">slot</text>
<text text-anchor="middle" x="24.8" y="-399.1" font-family="Courier New" font-size="14.00"> &#160;</text>
<polyline fill="none" stroke="black" points="0,-390.9 49.61,-390.9 "/>
<text text-anchor="middle" x="24.8" y="-374.3" font-family="Courier New" font-size="14.00">0</text>
<text text-anchor="middle" x="24.8" y="-357.5" font-family="Courier New" font-size="14.00"> &#160;</text>
<polyline fill="none" stroke="black" points="0,-349.3 49.61,-349.3 "/>
<text text-anchor="middle" x="24.8" y="-332.7" font-family="Courier New" font-size="14.00">1</text>
<text text-anchor="middle" x="24.8" y="-315.9" font-family="Courier New" font-size="14.00"> &#160;</text>
<polyline fill="none" stroke="black" points="0,-307.7 49.61,-307.7 "/>
<text text-anchor="middle" x="24.8" y="-291.1" font-family="Courier New" font-size="14.00">2 </text>
<polyline fill="none" stroke="black" points="0,-282.9 49.61,-282.9 "/>
<text text-anchor="middle" x="24.8" y="-266.3" font-family="Courier New" font-size="14.00">3 </text>
<polyline fill="none" stroke="black" points="0,-258.1 49.61,-258.1 "/>
<text text-anchor="middle" x="24.8" y="-241.5" font-family="Courier New" font-size="14.00">4</text>
<text text-anchor="middle" x="24.8" y="-224.7" font-family="Courier New" font-size="14.00"> &#160;</text>
<polyline fill="none" stroke="black" points="0,-216.5 49.61,-216.5 "/>
<text text-anchor="middle" x="24.8" y="-199.9" font-family="Courier New" font-size="14.00">5</text>
<text text-anchor="middle" x="24.8" y="-183.1" font-family="Courier New" font-size="14.00"> &#160;</text>
<polyline fill="none" stroke="black" points="0,-174.9 49.61,-174.9 "/>
<text text-anchor="middle" x="24.8" y="-158.3" font-family="Courier New" font-size="14.00">6</text>
<text text-anchor="middle" x="24.8" y="-141.5" font-family="Courier New" font-size="14.00"> &#160;</text>
<polyline fill="none" stroke="black" points="0,-133.3 49.61,-133.3 "/>
<text text-anchor="middle" x="24.8" y="-116.7" font-family="Courier New" font-size="14.00">7</text>
<text text-anchor="middle" x="24.8" y="-99.9" font-family="Courier New" font-size="14.00"> &#160;</text>
<polyline fill="none" stroke="black" points="0,-91.7 49.61,-91.7 "/>
<text text-anchor="middle" x="24.8" y="-75.1" font-family="Courier New" font-size="14.00">8</text>
<text text-anchor="middle" x="24.8" y="-58.3" font-family="Courier New" font-size="14.00"> &#160;</text>
<polyline fill="none" stroke="black" points="0,-50.1 49.61,-50.1 "/>
<text text-anchor="middle" x="24.8" y="-33.5" font-family="Courier New" font-size="14.00">9 </text>
<polyline fill="none" stroke="black" points="0,-25.3 49.61,-25.3 "/>
<text text-anchor="middle" x="24.8" y="-8.7" font-family="Courier New" font-size="14.00">10</text>
<polyline fill="none" stroke="black" points="49.61,-0.5 49.61,-432.5 "/>
<text text-anchor="middle" x="334.85" y="-415.9" font-family="Courier New" font-size="14.00">value</text>
<text text-anchor="middle" x="334.85" y="-399.1" font-family="Courier New" font-size="14.00"> &#160;</text>
<polyline fill="none" stroke="black" points="49.61,-390.9 620.1,-390.9 "/>
<text text-anchor="middle" x="334.85" y="-374.3" font-family="Courier New" font-size="14.00">0x00000000000000000000000048301FE520F72994D32EAD72E2B6A8447873CF50</text>
<text text-anchor="middle" x="334.85" y="-357.5" font-family="Courier New" font-size="14.00"> &#160;</text>
<polyline fill="none" stroke="black" points="49.61,-349.3 620.1,-349.3 "/>
<text text-anchor="middle" x="334.85" y="-332.7" font-family="Courier New" font-size="14.00">0x0000000000000000000000000000000000000000000000000000000000000000</text>
<text text-anchor="middle" x="334.85" y="-315.9" font-family="Courier New" font-size="14.00"> &#160;</text>
<polyline fill="none" stroke="black" points="49.61,-307.7 620.1,-307.7 "/>
<text text-anchor="middle" x="334.85" y="-291.1" font-family="Courier New" font-size="14.00"> </text>
<polyline fill="none" stroke="black" points="49.61,-282.9 620.1,-282.9 "/>
<text text-anchor="middle" x="334.85" y="-266.3" font-family="Courier New" font-size="14.00"> </text>
<polyline fill="none" stroke="black" points="49.61,-258.1 620.1,-258.1 "/>
<text text-anchor="middle" x="334.85" y="-241.5" font-family="Courier New" font-size="14.00">0x000000000000000000000000000000000000000022E166B73C1BB870B1DCA5C3</text>
<text text-anchor="middle" x="334.85" y="-224.7" font-family="Courier New" font-size="14.00"> &#160;</text>
<polyline fill="none" stroke="black" points="49.61,-216.5 620.1,-216.5 "/>
<text text-anchor="middle" x="334.85" y="-199.9" font-family="Courier New" font-size="14.00">0x477261706820546F6B656E000000000000000000000000000000000000000016</text>
<text text-anchor="middle" x="334.85" y="-183.1" font-family="Courier New" font-size="14.00"> &#160;</text>
<polyline fill="none" stroke="black" points="49.61,-174.9 620.1,-174.9 "/>
<text text-anchor="middle" x="334.85" y="-158.3" font-family="Courier New" font-size="14.00">0x4752540000000000000000000000000000000000000000000000000000000006</text>
<text text-anchor="middle" x="334.85" y="-141.5" font-family="Courier New" font-size="14.00"> &#160;</text>
<polyline fill="none" stroke="black" points="49.61,-133.3 620.1,-133.3 "/>
<text text-anchor="middle" x="334.85" y="-116.7" font-family="Courier New" font-size="14.00">0x0000000000000000000000000000000000000000000000000000000000000012</text>
<text text-anchor="middle" x="334.85" y="-99.9" font-family="Courier New" font-size="14.00"> &#160;</text>
<polyline fill="none" stroke="black" points="49.61,-91.7 620.1,-91.7 "/>
<text text-anchor="middle" x="334.85" y="-75.1" font-family="Courier New" font-size="14.00">0x7DF765FC47598288B5DBE16F0914E4BCEBE089491DA332C54323D4E54EA99379</text>
<text text-anchor="middle" x="334.85" y="-58.3" font-family="Courier New" font-size="14.00"> &#160;</text>
<polyline fill="none" stroke="black" points="49.61,-50.1 620.1,-50.1 "/>
<text text-anchor="middle" x="334.85" y="-33.5" font-family="Courier New" font-size="14.00"> </text>
<polyline fill="none" stroke="black" points="49.61,-25.3 620.1,-25.3 "/>
<text text-anchor="middle" x="334.85" y="-8.7" font-family="Courier New" font-size="14.00"> </text>
<polyline fill="none" stroke="black" points="620.1,-0.5 620.1,-432.5 "/>
<text text-anchor="middle" x="913.74" y="-415.9" font-family="Courier New" font-size="14.00">type: &lt;inherited contract&gt;.variable (bytes)</text>
<text text-anchor="middle" x="913.74" y="-399.1" font-family="Courier New" font-size="14.00">decoded data</text>
<polyline fill="none" stroke="black" points="620.1,-390.9 1207.39,-390.9 "/>
<text text-anchor="middle" x="707.81" y="-365.9" font-family="Courier New" font-size="14.00">unallocated (12)</text>
<polyline fill="none" stroke="black" points="795.52,-349.3 795.52,-390.9 "/>
<text text-anchor="middle" x="1001.35" y="-374.3" font-family="Courier New" font-size="14.00">address: Governed.governor (20)</text>
<text text-anchor="middle" x="1001.35" y="-357.5" font-family="Courier New" font-size="14.00"> 0x48301Fe520f72994d32eAd72E2B6A8447873CF50 </text>
<polyline fill="none" stroke="black" points="620.1,-349.3 1207.39,-349.3 "/>
<text text-anchor="middle" x="707.81" y="-324.3" font-family="Courier New" font-size="14.00">unallocated (12)</text>
<polyline fill="none" stroke="black" points="795.52,-307.7 795.52,-349.3 "/>
<text text-anchor="middle" x="1001.35" y="-332.7" font-family="Courier New" font-size="14.00">address: Governed.pendingGovernor (20)</text>
<text text-anchor="middle" x="1001.35" y="-315.9" font-family="Courier New" font-size="14.00"> 0x0000000000000000000000000000000000000000 </text>
<polyline fill="none" stroke="black" points="620.1,-307.7 1207.39,-307.7 "/>
<text text-anchor="middle" x="913.53" y="-291.1" font-family="Courier New" font-size="14.00">mapping(address=&gt;uint256): ERC20._balances (32)</text>
<polyline fill="none" stroke="black" points="620.1,-282.9 1207.39,-282.9 "/>
<text text-anchor="middle" x="913.54" y="-266.3" font-family="Courier New" font-size="14.00">mapping(address=&gt;mapping(address=&gt;uint256)): ERC20._allowances (32)</text>
<polyline fill="none" stroke="black" points="620.1,-258.1 1207.39,-258.1 "/>
<text text-anchor="middle" x="913.62" y="-241.5" font-family="Courier New" font-size="14.00">uint256: ERC20._totalSupply (32)</text>
<text text-anchor="middle" x="913.62" y="-224.7" font-family="Courier New" font-size="14.00"> 10,794,983,704,805,700,354,417,927,619 </text>
<polyline fill="none" stroke="black" points="620.1,-216.5 1207.39,-216.5 "/>
<text text-anchor="middle" x="913.41" y="-199.9" font-family="Courier New" font-size="14.00">string: ERC20._name (32)</text>
<text text-anchor="middle" x="913.41" y="-183.1" font-family="Courier New" font-size="14.00"> &quot;Graph Token&quot; </text>
<polyline fill="none" stroke="black" points="620.1,-174.9 1207.39,-174.9 "/>
<text text-anchor="middle" x="913.31" y="-158.3" font-family="Courier New" font-size="14.00">string: ERC20._symbol (32)</text>
<text text-anchor="middle" x="913.31" y="-141.5" font-family="Courier New" font-size="14.00"> &quot;GRT&quot; </text>
<polyline fill="none" stroke="black" points="620.1,-133.3 1207.39,-133.3 "/>
<text text-anchor="middle" x="745.81" y="-108.3" font-family="Courier New" font-size="14.00">unallocated (31)</text>
<polyline fill="none" stroke="black" points="871.52,-91.7 871.52,-133.3 "/>
<text text-anchor="middle" x="1039.24" y="-116.7" font-family="Courier New" font-size="14.00">uint8: ERC20._decimals (1)</text>
<text text-anchor="middle" x="1039.24" y="-99.9" font-family="Courier New" font-size="14.00"> 18 </text>
<polyline fill="none" stroke="black" points="620.1,-91.7 1207.39,-91.7 "/>
<text text-anchor="middle" x="913.74" y="-75.1" font-family="Courier New" font-size="14.00">bytes32: DOMAIN_SEPARATOR (32)</text>
<text text-anchor="middle" x="913.74" y="-58.3" font-family="Courier New" font-size="14.00"> 0x7DF765FC47598288B5DBE16F0914E4BCEBE089491DA332C54323D4E54EA99379 </text>
<polyline fill="none" stroke="black" points="620.1,-50.1 1207.39,-50.1 "/>
<text text-anchor="middle" x="913.52" y="-33.5" font-family="Courier New" font-size="14.00">mapping(address=&gt;bool): _minters (32)</text>
<polyline fill="none" stroke="black" points="620.1,-25.3 1207.39,-25.3 "/>
<text text-anchor="middle" x="913.72" y="-8.7" font-family="Courier New" font-size="14.00">mapping(address=&gt;uint256): nonces (32)</text>
</g>
</g>
</svg>
