<?xml version="1.0" encoding="UTF-8" standalone="no"?>
<!DOCTYPE svg PUBLIC "-//W3C//DTD SVG 1.1//EN"
 "http://www.w3.org/Graphics/SVG/1.1/DTD/svg11.dtd">
<!-- Generated by graphviz version 5.0.0 (20220707.1540)
 -->
<!-- Title: StorageDiagram Pages: 1 -->
<svg width="1241pt" height="183pt"
 viewBox="0.00 0.00 1240.59 183.40" xmlns="http://www.w3.org/2000/svg" xmlns:xlink="http://www.w3.org/1999/xlink">
<g id="graph0" class="graph" transform="scale(1 1) rotate(0) translate(4 179.4)">
<title>StorageDiagram</title>
<polygon fill="white" stroke="transparent" points="-4,4 -4,-179.4 1236.59,-179.4 1236.59,4 -4,4"/>
<!-- 1 -->
<g id="node1" class="node">
<title>1</title>
<polygon fill="#f2f2f2" stroke="black" points="0,-0.5 0,-174.9 1232.59,-174.9 1232.59,-0.5 0,-0.5"/>
<text text-anchor="middle" x="616.3" y="-158.3" font-family="Courier New" font-size="14.00">LinkToken &lt;&lt;Contract&gt;&gt;</text>
<text text-anchor="middle" x="616.3" y="-141.5" font-family="Courier New" font-size="14.00">0x514910771AF9Ca656af840dff83E8264EcF986CA</text>
<polyline fill="none" stroke="black" points="0,-133.3 1232.59,-133.3 "/>
<text text-anchor="middle" x="24.8" y="-116.7" font-family="Courier New" font-size="14.00">slot</text>
<text text-anchor="middle" x="24.8" y="-99.9" font-family="Courier New" font-size="14.00"> &#160;</text>
<polyline fill="none" stroke="black" points="0,-91.7 49.61,-91.7 "/>
<text text-anchor="middle" x="24.8" y="-75.1" font-family="Courier New" font-size="14.00">0</text>
<text text-anchor="middle" x="24.8" y="-58.3" font-family="Courier New" font-size="14.00"> &#160;</text>
<polyline fill="none" stroke="black" points="0,-50.1 49.61,-50.1 "/>
<text text-anchor="middle" x="24.8" y="-33.5" font-family="Courier New" font-size="14.00">1 </text>
<polyline fill="none" stroke="black" points="0,-25.3 49.61,-25.3 "/>
<text text-anchor="middle" x="24.8" y="-8.7" font-family="Courier New" font-size="14.00">2</text>
<polyline fill="none" stroke="black" points="49.61,-0.5 49.61,-133.3 "/>
<text text-anchor="middle" x="334.85" y="-116.7" font-family="Courier New" font-size="14.00">value</text>
<text text-anchor="middle" x="334.85" y="-99.9" font-family="Courier New" font-size="14.00"> &#160;</text>
<polyline fill="none" stroke="black" points="49.61,-91.7 620.1,-91.7 "/>
<text text-anchor="middle" x="334.85" y="-75.1" font-family="Courier New" font-size="14.00">0x0000000000000000000000000000000000000000000000000000000000000000</text>
<text text-anchor="middle" x="334.85" y="-58.3" font-family="Courier New" font-size="14.00"> &#160;</text>
<polyline fill="none" stroke="black" points="49.61,-50.1 620.1,-50.1 "/>
<text text-anchor="middle" x="334.85" y="-33.5" font-family="Courier New" font-size="14.00"> </text>
<polyline fill="none" stroke="black" points="49.61,-25.3 620.1,-25.3 "/>
<text text-anchor="middle" x="334.85" y="-8.7" font-family="Courier New" font-size="14.00"> </text>
<polyline fill="none" stroke="black" points="620.1,-0.5 620.1,-133.3 "/>
<text text-anchor="middle" x="926.34" y="-116.7" font-family="Courier New" font-size="14.00">type: &lt;inherited contract&gt;.variable (bytes)</text>
<text text-anchor="middle" x="926.34" y="-99.9" font-family="Courier New" font-size="14.00">decoded data</text>
<polyline fill="none" stroke="black" points="620.1,-91.7 1232.59,-91.7 "/>
<text text-anchor="middle" x="926.32" y="-75.1" font-family="Courier New" font-size="14.00">uint256: ERC20Basic.totalSupply (32)</text>
<text text-anchor="middle" x="926.32" y="-58.3" font-family="Courier New" font-size="14.00"> 0 </text>
<polyline fill="none" stroke="black" points="620.1,-50.1 1232.59,-50.1 "/>
<text text-anchor="middle" x="926.33" y="-33.5" font-family="Courier New" font-size="14.00">mapping(address=&gt;uint256): BasicToken.balances (32)</text>
<polyline fill="none" stroke="black" points="620.1,-25.3 1232.59,-25.3 "/>
<text text-anchor="middle" x="926.34" y="-8.7" font-family="Courier New" font-size="14.00">mapping(address=&gt;mapping(address=&gt;uint256)): StandardToken.allowed (32)</text>
</g>
</g>
</svg>
